/* XPM */
static char * B_xpm[] = {
"46 46 296 2",
"  	c None",
". 	c #FEE9F6",
"+ 	c #F4B1DB",
"@ 	c #DF72B8",
"# 	c #F4BADE",
"$ 	c #F7BEE1",
"% 	c #EC97CC",
"& 	c #FFECF8",
"* 	c #C6489F",
"= 	c #B92A8D",
"- 	c #E98CC7",
"; 	c #E179BD",
"> 	c #B52388",
", 	c #E285C1",
"' 	c #CB49A0",
") 	c #A8127E",
"! 	c #D154A7",
"~ 	c #C03795",
"{ 	c #B2238A",
"] 	c #E276BA",
"^ 	c #AA1581",
"/ 	c #A70F7D",
"( 	c #E386C3",
"_ 	c #F8BFE2",
": 	c #F9C8E7",
"< 	c #EDA4D3",
"[ 	c #C23B96",
"} 	c #A3097A",
"| 	c #B82E8F",
"1 	c #A60E7C",
"2 	c #9E0277",
"3 	c #A2077A",
"4 	c #D763B0",
"5 	c #B32087",
"6 	c #F394CC",
"7 	c #F2A5D4",
"8 	c #E087C2",
"9 	c #E288C3",
"0 	c #FCC2E5",
"a 	c #F49CD1",
"b 	c #BA2B8E",
"c 	c #E27DBD",
"d 	c #A00579",
"e 	c #A3097B",
"f 	c #9C0075",
"g 	c #9D0076",
"h 	c #A91380",
"i 	c #B5278A",
"j 	c #FFD1EC",
"k 	c #C23E99",
"l 	c #A4097A",
"m 	c #A80F7E",
"n 	c #D767B0",
"o 	c #B42489",
"p 	c #B22088",
"q 	c #9C0076",
"r 	c #AA1580",
"s 	c #D96AB2",
"t 	c #A2097B",
"u 	c #A7107E",
"v 	c #DD77B9",
"w 	c #AD1A83",
"x 	c #B11F85",
"y 	c #9C0074",
"z 	c #9F0377",
"A 	c #AC2B8D",
"B 	c #A61B85",
"C 	c #FFF0FC",
"D 	c #EA9CCC",
"E 	c #EEA7D2",
"F 	c #FFDFF3",
"G 	c #CE52A2",
"H 	c #AB1581",
"I 	c #AB1782",
"J 	c #E88FC6",
"K 	c #E27CBB",
"L 	c #A1087A",
"M 	c #BE3894",
"N 	c #FFE0F6",
"O 	c #BC3693",
"P 	c #A50E7F",
"Q 	c #EF95CC",
"R 	c #ED9DCE",
"S 	c #AD1E87",
"T 	c #A00478",
"U 	c #CA50A4",
"V 	c #FFF1FD",
"W 	c #D05AA9",
"X 	c #A3087B",
"Y 	c #B2268B",
"Z 	c #FAB7DE",
"` 	c #F8B3DC",
" .	c #B83191",
"..	c #9D0075",
"+.	c #A40B7C",
"@.	c #DA71B5",
"#.	c #AA1682",
"$.	c #9E0076",
"%.	c #BF4099",
"&.	c #FFCDEA",
"*.	c #C54CA0",
"=.	c #AD1B85",
"-.	c #E58BC4",
";.	c #EA95C9",
">.	c #B62B8F",
",.	c #9B0074",
"'.	c #CD5DAA",
").	c #D46BB2",
"!.	c #A50B7C",
"~.	c #B82F90",
"{.	c #EFA5D1",
"].	c #C64BA1",
"^.	c #A60D7D",
"/.	c #D770B4",
"(.	c #DE85BF",
"_.	c #AE1A84",
":.	c #9B0073",
"<.	c #C750A3",
"[.	c #D268B0",
"}.	c #9E0075",
"|.	c #AE1984",
"1.	c #E18CC4",
"2.	c #EAA2CF",
"3.	c #BD3494",
"4.	c #990073",
"5.	c #AD248A",
"6.	c #A40E7E",
"7.	c #D469B1",
"8.	c #DE7FBE",
"9.	c #A50B7B",
"0.	c #980071",
"a.	c #CD56A8",
"b.	c #E687C4",
"c.	c #E688C5",
"d.	c #E381C1",
"e.	c #BE3B98",
"f.	c #990072",
"g.	c #BC3292",
"h.	c #ECA9D3",
"i.	c #CD59A8",
"j.	c #A81482",
"k.	c #AF258A",
"l.	c #A30879",
"m.	c #A20577",
"n.	c #A30678",
"o.	c #A40979",
"p.	c #B0268A",
"q.	c #A61180",
"r.	c #A30779",
"s.	c #DF83C0",
"t.	c #E89BCD",
"u.	c #AF1984",
"v.	c #B32A8E",
"w.	c #ECA4D2",
"x.	c #EBA3D2",
"y.	c #9A0073",
"z.	c #980072",
"A.	c #CB54A5",
"B.	c #DC77B9",
"C.	c #9D0074",
"D.	c #BF3A96",
"E.	c #EDA2D1",
"F.	c #EDA1D0",
"G.	c #BF3B97",
"H.	c #9B0072",
"I.	c #AB1380",
"J.	c #E99ECF",
"K.	c #BF3794",
"L.	c #9A0071",
"M.	c #BC3593",
"N.	c #F0A4D2",
"O.	c #EFA3D2",
"P.	c #990070",
"Q.	c #D96DB4",
"R.	c #E999CC",
"S.	c #A20678",
"T.	c #F2A6D4",
"U.	c #B82D8F",
"V.	c #9A0072",
"W.	c #B92B8D",
"X.	c #F1B0D9",
"Y.	c #CD51A4",
"Z.	c #9D0377",
"`.	c #B62B8D",
" +	c #B62C8E",
".+	c #A31580",
"++	c #E891C8",
"@+	c #F4B7DD",
"#+	c #AF1A83",
"$+	c #9B0075",
"%+	c #DD7BBC",
"&+	c #9F0378",
"*+	c #E88EC7",
"=+	c #C5419B",
"-+	c #E27CBC",
";+	c #A3107F",
">+	c #F4A6D4",
",+	c #B02187",
"'+	c #9D0176",
")+	c #B12288",
"!+	c #A10B7C",
"~+	c #9F0579",
"{+	c #A60C7C",
"]+	c #F2ABD7",
"^+	c #FFDAF1",
"/+	c #BC3091",
"(+	c #AD1A85",
"_+	c #E58FC7",
":+	c #F3A6D4",
"<+	c #B3258A",
"[+	c #9E0176",
"}+	c #B3268A",
"|+	c #D272B6",
"1+	c #A30A7C",
"2+	c #D762AD",
"3+	c #EC98CB",
"4+	c #B4248B",
"5+	c #EB9FD0",
"6+	c #F4ADD8",
"7+	c #B6298C",
"8+	c #B5298C",
"9+	c #F4A9D6",
"0+	c #E488C3",
"a+	c #B11C85",
"b+	c #B11E86",
"c+	c #F9B9E0",
"d+	c #CF54A5",
"e+	c #B5248A",
"f+	c #B31F86",
"g+	c #A61481",
"h+	c #A5117F",
"i+	c #AB1480",
"j+	c #970071",
"k+	c #E480BE",
"l+	c #F6B6DD",
"m+	c #AA1480",
"n+	c #A4087B",
"o+	c #E395C9",
"p+	c #E090C7",
"q+	c #BB2E8E",
"r+	c #DF76B8",
"s+	c #B92B8F",
"t+	c #E99CCE",
"u+	c #B92C8F",
"v+	c #A40B7B",
"w+	c #ED96CB",
"x+	c #FFDAF0",
"y+	c #BA2E8E",
"z+	c #93006C",
"A+	c #B7278D",
"B+	c #EA9BCD",
"C+	c #E99BCD",
"D+	c #B6268C",
"E+	c #CD50A2",
"F+	c #ED95CA",
"G+	c #A60F7E",
"H+	c #A21480",
"I+	c #9E0C7C",
"J+	c #B6278D",
"K+	c #EA99CC",
"L+	c #B6288D",
"M+	c #A21781",
"N+	c #9F087A",
"O+	c #F9B2DB",
"P+	c #C94B9E",
"Q+	c #E58BC6",
"R+	c #FEC3E5",
"S+	c #FCBDE2",
"T+	c #FFC8E9",
"U+	c #DF7DBD",
"V+	c #9E0378",
"W+	c #B4258B",
"X+	c #A2097C",
"Y+	c #F1A3D3",
"Z+	c #FFC5E7",
"`+	c #FFCAEA",
" @	c #CD5BAB",
".@	c #9F0478",
"+@	c #D664AE",
"@@	c #FAB8DD",
"#@	c #AE1E86",
"$@	c #A1077A",
"%@	c #BC3694",
"&@	c #BD3996",
"*@	c #BD3896",
"=@	c #BA3191",
"-@	c #BE3996",
";@	c #BE3A96",
">@	c #B72D8F",
",@	c #9E0177",
"'@	c #B82D8E",
")@	c #D865AE",
"!@	c #A81280",
"~@	c #E77FBE",
"{@	c #B11F86",
"]@	c #B22287",
"              .                                                                             ",
"            + @ #                                                         $ % &             ",
"            * = -                                                         ; > ,             ",
"          ' ) !                                                             ~ { ]           ",
"          ^ /             ( _                                 : <           [ } |           ",
"        1 2 3           4 5 6             7 8 9 0             a b c           d e           ",
"        f g f           h i             j k l m n               o p           q g g         ",
"        g g           r f h             s t f f u v             w q x         g g g         ",
"        g g           2 g g               2 y f g               2 g z         g g g         ",
"        g g           g g g                 A B                 g g g         g g g         ",
"        g g           g g g               C D E                 g g g         g g g         ",
"        g g g         g g g             F G H I J               g g g         g g g         ",
"        g g g           g g g           K L q g M N           g g g           g g g         ",
"          g g             g g           O 2 g g P Q           g g g           g g           ",
"          g g g           g           R S g g g T U V           g           g g g           ",
"            g g g                     W X g g g g Y Z                     g g g g           ",
"            g g g                   `  ...g g g g +.@.                    g g g             ",
"              g                     v #.f g   g g $.%.&.                  g g               ",
"                                    *.z g g     g f =.-.                                    ",
"                                  ;.>.,.g g     g g T '.                                    ",
"                                  ).!.f g       g g ,.~.{.                                  ",
"                                  ].,.g g         g f ^./.                                  ",
"                                (._.,.g           g g :.<.                                  ",
"                                [.}.g g             g ,.|.1.                                ",
"                              2.3.4.y 5.            6.f }.7.                                ",
"                              8.9.f 0.a.b.c.c.c.c.d.e.f.4.g.h.                              ",
"                              i.f.f j.k.l.m.n.n.m.o.p.q.,.r.s.                              ",
"                            t.u.,.:.v.w.            x.v.y.z.A.                              ",
"                            B.C.g g :.D.E.        F.G.H.g ,.I.J.                            ",
"                            K.f.g g   L.M.N.    O.M.P.  g g :.Q.                            ",
"                          R.S.f g       :.| T.T.U.V.    g g y.W.X.                          ",
"                          Y.y.g g         Z.`. +.+        g q ..++                          ",
"                        @+#+$+..y         %+z &+*+        g g y.=+                          ",
"                        -+V...;+        >+,+'+g )+>+      !+~+f {+]+                        ",
"                      ^+/+,.f (+_+    :+<+[+    g }+:+    |+1+f f.2+                        ",
"                      3+z g g ,.4+5+6+7+f         f 8+9+0+a+g g f b+c+                      ",
"                      d+,.g g   z.e+f+g+            h+i+H j+g g g f k+                      ",
"                    l+m+g g g     j+n+o+            p+..y.    g g f q+                      ",
"                    r+2 g g         f.s+t+        t+u+y.      g g g v+w+                    ",
"                  x+y+g g f           z+A+B+    C+D+z+          f g f E+                    ",
"                  F+G+g g H+            I+J+K+K+L+M+            N+g g I O+                  ",
"                  P+2 g d Q+R+S+S+S+S+T+U+V+4+W+X+Y+Z+S+S+S+S+`+ @.@g d +@                  ",
"                @@#@g g $@%@&@*@*@*@*@&@=@.@f f 1+-@&@*@*@*@*@;@>@2 g ,@'@                  ",
"                )@+.g g                                           g g g !@~@                ",
"                {@&+g g                                             g g .@]@                ",
"                  g g                                               g g g                   "};
