/* XPM */
static char * as_897_512_xpm[] = {
"46 46 499 2",
"  	c None",
". 	c #C12215",
"+ 	c #C42113",
"@ 	c #C42214",
"# 	c #C32113",
"$ 	c #C32214",
"% 	c #4D4C42",
"& 	c #484E44",
"* 	c #BA2518",
"= 	c #C52113",
"- 	c #4C4C42",
"; 	c #4C4D43",
"> 	c #61453B",
", 	c #CA2011",
"' 	c #C42414",
") 	c #C02315",
"! 	c #B62619",
"~ 	c #5A483D",
"{ 	c #494D44",
"] 	c #9B3023",
"^ 	c #C82A12",
"/ 	c #CD3410",
"( 	c #4E4C42",
"_ 	c #973225",
": 	c #8D362A",
"< 	c #6B4136",
"[ 	c #803A2E",
"} 	c #BF2216",
"| 	c #D4450F",
"1 	c #D14010",
"2 	c #7F3A2F",
"3 	c #464F45",
"4 	c #55493F",
"5 	c #89372B",
"6 	c #983125",
"7 	c #C42213",
"8 	c #C22214",
"9 	c #C12315",
"0 	c #C31E13",
"a 	c #DF610C",
"b 	c #D6480E",
"c 	c #B3281A",
"d 	c #BD2416",
"e 	c #C42114",
"f 	c #AF291B",
"g 	c #4B4D43",
"h 	c #A92B1E",
"i 	c #C42313",
"j 	c #C01F15",
"k 	c #EF7F06",
"l 	c #DC5B0C",
"m 	c #C32014",
"n 	c #A32D21",
"o 	c #4C4C43",
"p 	c #C62012",
"q 	c #BA2517",
"r 	c #9F2F22",
"s 	c #713F34",
"t 	c #425046",
"u 	c #703F35",
"v 	c #CC3311",
"w 	c #D54A0E",
"x 	c #C21C14",
"y 	c #C11F15",
"z 	c #CE3711",
"A 	c #F49D04",
"B 	c #E67908",
"C 	c #C32114",
"D 	c #C21D14",
"E 	c #D3470F",
"F 	c #C31F14",
"G 	c #A52D20",
"H 	c #4C4D42",
"I 	c #3F5148",
"J 	c #B3281B",
"K 	c #C52613",
"L 	c #C82312",
"M 	c #C32314",
"N 	c #C02316",
"O 	c #CD3712",
"P 	c #F28405",
"Q 	c #E0630B",
"R 	c #CF3910",
"S 	c #E76E08",
"T 	c #F7B802",
"U 	c #F39A04",
"V 	c #C93012",
"W 	c #C72913",
"X 	c #E2670B",
"Y 	c #EA7007",
"Z 	c #C01D15",
"` 	c #AA2B1E",
" .	c #54493F",
"..	c #644439",
"+.	c #B1291B",
"@.	c #4F4B42",
"#.	c #993224",
"$.	c #D4410E",
"%.	c #DA510D",
"&.	c #C11E15",
"*.	c #C22014",
"=.	c #D3410F",
"-.	c #EF8006",
";.	c #F07F05",
">.	c #EF7E06",
",.	c #F08A05",
"'.	c #F9CA04",
").	c #F5AF06",
"!.	c #EE7B06",
"~.	c #EC7B07",
"{.	c #F08006",
"].	c #E56C09",
"^.	c #C11D14",
"/.	c #C31E14",
"(.	c #C32615",
"_.	c #CA2012",
":.	c #C92012",
"<.	c #933327",
"[.	c #4A4D44",
"}.	c #87372C",
"|.	c #D3350E",
"1.	c #E87309",
"2.	c #E66809",
"3.	c #CF3B10",
"4.	c #CA2B12",
"5.	c #E56D09",
"6.	c #EE7A06",
"7.	c #F5B302",
"8.	c #F3A004",
"9.	c #F9BF00",
"0.	c #F8D12B",
"a.	c #FACD16",
"b.	c #F2AC04",
"c.	c #F7B401",
"d.	c #EE8806",
"e.	c #E86D08",
"f.	c #BF1A15",
"g.	c #D8500D",
"h.	c #CE3C10",
"i.	c #C52013",
"j.	c #913428",
"k.	c #4F4B41",
"l.	c #474E44",
"m.	c #8F3329",
"n.	c #CC2E11",
"o.	c #E77109",
"p.	c #F49704",
"q.	c #F08F06",
"r.	c #F08205",
"s.	c #EE8007",
"t.	c #F9C701",
"u.	c #F9C800",
"v.	c #F8C600",
"w.	c #FAE578",
"x.	c #F8D338",
"y.	c #FBCB07",
"z.	c #F8C701",
"A.	c #F18B04",
"B.	c #EA7908",
"C.	c #E0620B",
"D.	c #EE7F06",
"E.	c #DD570C",
"F.	c #C62013",
"G.	c #4A4D43",
"H.	c #6C4236",
"I.	c #C72712",
"J.	c #E1660B",
"K.	c #F7B602",
"L.	c #F6BB09",
"M.	c #F7B900",
"N.	c #F9C600",
"O.	c #F9CE1E",
"P.	c #FBDF5E",
"Q.	c #FAEA8E",
"R.	c #FBE880",
"S.	c #F9E16A",
"T.	c #F9C500",
"U.	c #F7B700",
"V.	c #F6B103",
"W.	c #F49904",
"X.	c #D64D0E",
"Y.	c #C42013",
"Z.	c #C22215",
"`.	c #554A3F",
" +	c #87372B",
".+	c #EC7D07",
"++	c #FBD013",
"@+	c #FADE5A",
"#+	c #F9D848",
"$+	c #FBE881",
"%+	c #F8E88A",
"&+	c #FDEC8B",
"*+	c #FAE98A",
"=+	c #F8E16D",
"-+	c #F9D022",
";+	c #F6B102",
">+	c #DC570C",
",+	c #C52213",
"'+	c #C72112",
")+	c #A52C20",
"!+	c #6C4136",
"~+	c #6A4237",
"{+	c #B0291B",
"]+	c #C72012",
"^+	c #CC3811",
"/+	c #D5460E",
"(+	c #E3670A",
"_+	c #F8C400",
":+	c #F9CF20",
"<+	c #FBEA87",
"[+	c #FAEA8B",
"}+	c #FCEB8B",
"|+	c #FBEA8A",
"1+	c #FBE269",
"2+	c #FACB04",
"3+	c #F19505",
"4+	c #E86E09",
"5+	c #D84F0E",
"6+	c #D2410F",
"7+	c #C72C13",
"8+	c #CA1F11",
"9+	c #AF291C",
"0+	c #684238",
"a+	c #684338",
"b+	c #BE2416",
"c+	c #CE3910",
"d+	c #F29904",
"e+	c #F9BF01",
"f+	c #F8C702",
"g+	c #FAC700",
"h+	c #F7E16F",
"i+	c #FCEB8D",
"j+	c #FBE36E",
"k+	c #F7C70A",
"l+	c #FAC400",
"m+	c #F2A004",
"n+	c #F17F05",
"o+	c #E46A0A",
"p+	c #C72113",
"q+	c #714034",
"r+	c #BB2517",
"s+	c #D5470E",
"t+	c #EF8306",
"u+	c #F5B803",
"v+	c #F7C300",
"w+	c #FCE266",
"x+	c #FAE98D",
"y+	c #F9E889",
"z+	c #FAE576",
"A+	c #FACA0C",
"B+	c #F7C002",
"C+	c #F08105",
"D+	c #E6700A",
"E+	c #BF2416",
"F+	c #63453A",
"G+	c #454F45",
"H+	c #8F3428",
"I+	c #C61F13",
"J+	c #C01C15",
"K+	c #D84D0E",
"L+	c #EE7A07",
"M+	c #F5A503",
"N+	c #F8C803",
"O+	c #FAD128",
"P+	c #F9E886",
"Q+	c #FBEB8C",
"R+	c #FBEC91",
"S+	c #F9E16B",
"T+	c #F9CC21",
"U+	c #F19104",
"V+	c #E05B0B",
"W+	c #C11C15",
"X+	c #88372B",
"Y+	c #5C473C",
"Z+	c #B6261A",
"`+	c #CC3111",
" @	c #E56809",
".@	c #EE8206",
"+@	c #F6AC03",
"@@	c #F6C403",
"#@	c #FBC904",
"$@	c #F8C90F",
"%@	c #FBCA07",
"&@	c #FBEA8B",
"*@	c #FDEC8C",
"=@	c #F8D12E",
"-@	c #FBCC12",
";@	c #F6CA15",
">@	c #FACA06",
",@	c #F4AC03",
"'@	c #E97607",
")@	c #D03C10",
"!@	c #993125",
"~@	c #634339",
"{@	c #754333",
"]@	c #954927",
"^@	c #BD4B18",
"/@	c #E35A09",
"(@	c #EA7307",
"_@	c #EE7D07",
":@	c #EA7607",
"<@	c #EC8306",
"[@	c #F08C06",
"}@	c #F18C04",
"|@	c #F09605",
"1@	c #F8BE00",
"2@	c #F7C502",
"3@	c #FAC808",
"4@	c #FBE77D",
"5@	c #F8D12D",
"6@	c #FAC800",
"7@	c #F3AA02",
"8@	c #F08404",
"9@	c #EC7D06",
"0@	c #E47109",
"a@	c #E47609",
"b@	c #E46909",
"c@	c #DA480C",
"d@	c #B33E1B",
"e@	c #744033",
"f@	c #57483E",
"g@	c #C62F13",
"h@	c #D9410D",
"i@	c #DD430B",
"j@	c #DB410C",
"k@	c #D5370E",
"l@	c #D02F0F",
"m@	c #C92E12",
"n@	c #C92B12",
"o@	c #C62D13",
"p@	c #DB530C",
"q@	c #ED7D07",
"r@	c #F7BD02",
"s@	c #F9CB01",
"t@	c #F9C807",
"u@	c #F7CE28",
"v@	c #FBDE56",
"w@	c #F8CE20",
"x@	c #FBC800",
"y@	c #F5B703",
"z@	c #F4A603",
"A@	c #ED7B07",
"B@	c #E36609",
"C@	c #C52313",
"D@	c #C42314",
"E@	c #C72613",
"F@	c #CD3011",
"G@	c #CA2C12",
"H@	c #C62513",
"I@	c #B72619",
"J@	c #9A3024",
"K@	c #7E382F",
"L@	c #634239",
"M@	c #5D453C",
"N@	c #5B463C",
"O@	c #5F453B",
"P@	c #753E32",
"Q@	c #B5271A",
"R@	c #D74D0E",
"S@	c #F07E05",
"T@	c #ED8007",
"U@	c #F08606",
"V@	c #F8C001",
"W@	c #F8D336",
"X@	c #F3AF04",
"Y@	c #EE7606",
"Z@	c #C52713",
"`@	c #A42E20",
" #	c #B2281B",
".#	c #6F4035",
"+#	c #C82012",
"@#	c #DE5A0B",
"##	c #DE5B0C",
"$#	c #E05F0A",
"%#	c #ED7907",
"&#	c #ED7C07",
"*#	c #F8BF01",
"=#	c #F9C708",
"-#	c #F3A603",
";#	c #F7B702",
">#	c #ED7B06",
",#	c #DD590C",
"'#	c #E1620B",
")#	c #D74A0E",
"!#	c #783D31",
"~#	c #444F45",
"{#	c #514B40",
"]#	c #6B4036",
"^#	c #7E3B2F",
"/#	c #C62113",
"(#	c #C32414",
"_#	c #C42413",
":#	c #E0610B",
"<#	c #F39304",
"[#	c #F29A05",
"}#	c #F6C003",
"|#	c #EE7D06",
"1#	c #F19C05",
"2#	c #E05D0B",
"3#	c #C22515",
"4#	c #8F3429",
"5#	c #494D43",
"6#	c #AC2A1D",
"7#	c #EF8906",
"8#	c #EF7B06",
"9#	c #F7B502",
"0#	c #ED7A07",
"a#	c #EF7C06",
"b#	c #EE7E06",
"c#	c #E46709",
"d#	c #C21E14",
"e#	c #B92518",
"f#	c #504B41",
"g#	c #CE1E0F",
"h#	c #CB1F11",
"i#	c #C22315",
"j#	c #CA2E12",
"k#	c #EC7A07",
"l#	c #F18005",
"m#	c #E2650A",
"n#	c #EC7807",
"o#	c #F09205",
"p#	c #EE7C07",
"q#	c #E5670A",
"r#	c #EF8106",
"s#	c #F07F06",
"t#	c #C12015",
"u#	c #AC2A1E",
"v#	c #B3271B",
"w#	c #7C3C30",
"x#	c #943326",
"y#	c #753E33",
"z#	c #534B41",
"A#	c #5B473D",
"B#	c #BD2216",
"C#	c #DA540D",
"D#	c #D04010",
"E#	c #E77009",
"F#	c #F07D05",
"G#	c #DC560C",
"H#	c #D94F0D",
"I#	c #EE8107",
"J#	c #D1390F",
"K#	c #983025",
"L#	c #85392C",
"M#	c #6C4036",
"N#	c #C32C14",
"O#	c #EE7C06",
"P#	c #D43B0E",
"Q#	c #B62419",
"R#	c #C31D14",
"S#	c #E3650A",
"T#	c #BF2316",
"U#	c #C22314",
"V#	c #E46309",
"W#	c #992C24",
"X#	c #4E4C41",
"Y#	c #982C25",
"Z#	c #E56409",
"`#	c #CB3611",
" $	c #83382D",
".$	c #534A40",
"+$	c #A22A21",
"@$	c #E05A0B",
"#$	c #E97408",
"$$	c #C62413",
"%$	c #C02416",
"&$	c #E76A08",
"*$	c #AD271D",
"=$	c #674238",
"-$	c #CF2A10",
";$	c #C72F13",
">$	c #83372D",
",$	c #494E44",
"'$	c #82362D",
")$	c #DB500C",
"!$	c #DF590B",
"~$	c #952E26",
"{$	c #8A362B",
"]$	c #C82812",
"^$	c #C92812",
"/$	c #544A40",
"($	c #BC2417",
"_$	c #C02415",
":$	c #743E33",
"<$	c #733C33",
"[$	c #D84B0D",
"}$	c #C73113",
"|$	c #723E34",
"1$	c #CE1D0F",
"2$	c #C22F15",
"3$	c #BA2417",
"4$	c #B52719",
"5$	c #9A3125",
"6$	c #674338",
"7$	c #BE2316",
"8$	c #A12E21",
"9$	c #BC2416",
"0$	c #BF2214",
"                                                                                            ",
"                                                                                            ",
"                                                                                            ",
"                                                                                            ",
"                                                .                                           ",
"                                                +                                           ",
"                                                @                                           ",
"                                              # $                                           ",
"                                      % % % & * =                                           ",
"                                    - % % ; > , ' =                                         ",
"                                ) ! ~ % % { ] ^ / .           @                             ",
"                          % % ( _ = ) : < [ } | 1 = 2 3 4 5 $ @                             ",
"              .         % % % ( 6 7 @ 8 8 9 0 a b $ 9 c d e 9 f                             ",
"                8     % g % % ( h @ i @ $ e j k l 7 $ @ m $ = n o %                         ",
"                  p q r s ; t u = 8 v w x y z A B e C D E F $ G H o I   #                   ",
"                    J K L M N = $ = O P Q R S T U V W X Y Z = `  ...n + +.                  ",
"                    @.#.$.%.v &.m *.=.-.;.>.,.'.).!.~.{.].^.8 /.(._.:.<.[.-                 ",
"                    % - }.|.1.2.3.4.5.6.7.8.9.0.a.b.c.d.e.f.$ g.h.i.j.k.% %                 ",
"                  % % % l.m.n.o.p.q.r.s.t.u.v.w.x.y.z.A.B.C.D.E.F.r G.% % % %               ",
"                  % % % & H.i.I.J.K.L.M.N.O.P.Q.R.S.T.U.V.W.X.Y.Z.3 G.% % % %               ",
"                  % ( `. +Z.= 9 v .+++@+#+$+%+&+*+&+=+-+;+>+,+$ '+)+!+k.( %                 ",
"                  ~+{+:.]+7 ^+/+(+>._+:+<+[+}+*+|+*+1+2+3+4+5+6+7+p 8+,+9+0+                ",
"                % ( a+b+= Z.c+-.d+e+f+g+h+i+*+}+|+|+j+k+l+m+n+o+W $ $ p+q+(                 ",
"              % % % - a+r+= &.s+t+u+t.v+w+x+}+y+|+*+z+A+B+C+D++ C + E+F+G.-                 ",
"              % % % % G+H+I+J+K+L+M+N+O+P+Q+|+|+|+*+R+S+T+U+V+W+*.$ X+- % %                 ",
"              % % % - Y+Z+`+ @.@+@@@#@$@%@P+&@*+*+*@=@-@;@>@,@'@)@m !@( % % %               ",
"              ~@{@]@^@/@(@_@:@<@[@}@|@1@2@3@4@|+1+5@6@7@8@9@0@a@1.b@c@d@e@f@&               ",
"          + . g@h@i@j@k@l@m@n@o@p@q@C+r@s@t@u@v@w@x@y@z@A@B@C@D@E@o@F@G@H@I@J@              ",
"              K@L@M@N@O@P@Q@$ = R@S@T@U@.@V@g+W@6@X@Y@A@S@A@Z@e 8 b+r `@ #* E+e +           ",
"                g o o ; G..#+#' @###$#%#&#*#,@=#-#;#%#>#,#'#)#y :.!#~#l.& {#]#              ",
"                  % % % - ^#/#= (#D@_#:#<#[#C+}#|#1#>.2#*.,+3#= /#4#& % % -                 ",
"                    % % 5#6#= $ + @ K  @7#8#&#9#0#a#b#c#d#$ /#@ + e#f#% %                   ",
"                      G.s g#h#N i#$ j#k#l#m#n#o#p#q#r#s#t#= u#v#:.+#w#%                     ",
"                      G.x#y#z#& A#B#C#{.D#x E#F#G#*.H#I#J#K#g { % s L#k.                    ",
"                      % & G.- % M#N#O#P#Q#R#S#k#R T#U#V#@#W#X#% % G.5#%                     ",
"                        % % % ( Y#Z#`# $.$+$@$#$$$A#u %$&$*$f#% % % %                       ",
"                          % g =$-$;$>$,$% '$)$!$~$% { {$]$^$/$% % % %                       ",
"                              ($_$:$G.% % <$[$}$|$% % G.J@1$s g % %                         ",
"                            + 9 6 - % % % M#2$3$~ % % % .$4$5$l.%                           ",
"                            8             6$7$8$,$%         9$                              ",
"                          0$                $ <.            +                               ",
"                                            +                                               ",
"                                                                                            ",
"                                                                                            ",
"                                                                                            ",
"                                                                                            "};
